<svg version="1.1" id="Layer_1" xmlns="http://www.w3.org/2000/svg" xmlns:xlink="http://www.w3.org/1999/xlink" x="0px" y="0px"
	 width="100%" viewBox="0 0 500 500" enable-background="new 0 0 500 500" xml:space="preserve">
<path fill="#000000" opacity="1.000000" stroke="none" 
	d="
M1.000000,173.000000 
	C1.000000,162.645767 1.000000,152.291550 1.408800,141.301422 
	C1.817599,113.894585 1.817599,87.123650 1.817599,60.367332 
	C168.271927,60.367332 334.105469,60.367332 499.652466,60.367332 
	C499.652466,179.124115 499.652466,297.513458 499.652466,416.294098 
	C456.237915,416.294098 413.170319,416.294098 369.707520,416.294098 
	C369.707520,425.428589 369.707520,434.172729 369.707520,442.674225 
	C246.918976,442.674225 124.529984,442.674225 2.000000,442.674225 
	C2.000000,440.527527 2.000000,438.705994 2.000000,436.884491 
	C2.000000,350.734131 2.006109,264.583771 1.958275,178.433441 
	C1.957269,176.622101 1.333333,174.811142 1.000000,173.000000 
z"/>
<path fill="#FFFFFF" opacity="1.000000" stroke="none" 
	d="
M1.000000,173.468658 
	C1.333333,174.811142 1.957269,176.622101 1.958275,178.433441 
	C2.006109,264.583771 2.000000,350.734131 2.000000,436.884491 
	C2.000000,438.705994 2.000000,440.527527 2.000000,442.674225 
	C124.529984,442.674225 246.918976,442.674225 369.707520,442.674225 
	C369.707520,434.172729 369.707520,425.428589 369.707520,416.294098 
	C413.170319,416.294098 456.237915,416.294098 499.652466,416.294098 
	C499.652466,297.513458 499.652466,179.124115 499.652466,60.367332 
	C334.105469,60.367332 168.271927,60.367332 1.817599,60.367332 
	C1.817599,87.123650 1.817599,113.894585 1.408800,140.832764 
	C1.000000,94.343719 1.000000,47.687435 1.000000,1.015575 
	C167.619202,1.015575 334.238403,1.015575 500.928802,1.015575 
	C500.928802,167.582092 500.928802,334.164215 500.928802,500.873169 
	C334.455048,500.873169 167.909988,500.873169 1.000000,500.873169 
	C1.000000,391.979370 1.000000,282.958344 1.000000,173.468658 
z"/>
</svg>